<?xml version="1.0" encoding="UTF-8" standalone="no"?>
<svg width="495px" height="479px" viewBox="0 0 495 479" version="1.1" xmlns="http://www.w3.org/2000/svg" xmlns:xlink="http://www.w3.org/1999/xlink">
    <!-- Generator: Sketch 48.1 (47250) - http://www.bohemiancoding.com/sketch -->
    <title>logo</title>
    <desc>Created with Sketch.</desc>
    <defs></defs>
    <g id="Page-1" stroke="none" stroke-width="1" fill="none" fill-rule="evenodd">
        <g id="slides-symbol-600x600-771bf16a3cdf2b5094fa29ad085b16b9">
            <g id="Layers" fill="#9ECC33" fill-rule="nonzero">
                <rect id="Rectangle-path" fill-opacity="0.3" transform="translate(255.690263, 239.278614) rotate(11.438035) translate(-255.690263, -239.278614) " x="52.8004905" y="36.383342" width="405.779545" height="405.790544"></rect>
                <rect id="Rectangle-path" fill-opacity="0.6" transform="translate(229.082754, 239.285568) rotate(5.543546) translate(-229.082754, -239.285568) " x="26.1869567" y="36.3882707" width="405.791595" height="405.794595"></rect>
                <rect id="Rectangle-path" x="0.352" y="36.4" width="405.802" height="405.802"></rect>
            </g>
            <path d="M217.4,254.568 L221.432,226.632 L188.888,226.632 L184.856,254.568 L217.4,254.568 Z M173.336,334.632 C172.951998,338.280018 172.040007,340.919992 170.6,342.552 C169.159993,344.184008 166.616018,345 162.968,345 L132.728,345 C129.079982,345 126.344009,344.184008 124.52,342.552 C122.695991,340.919992 121.975998,338.280018 122.36,334.632 L126.392,306.12 L115.448,306.12 C111.799982,306.12 109.160008,305.304008 107.528,303.672 C105.895992,302.039992 105.08,299.400018 105.08,295.752 L105.08,264.936 C105.08,261.287982 105.895992,258.648008 107.528,257.016 C109.160008,255.383992 111.799982,254.568 115.448,254.568 L133.88,254.568 L137.912,226.632 L125.816,226.632 C122.167982,226.632 119.528008,225.816008 117.896,224.184 C116.263992,222.551992 115.448,219.912018 115.448,216.264 L115.448,185.448 C115.448,181.799982 116.263992,179.160008 117.896,177.528 C119.528008,175.895992 122.167982,175.08 125.816,175.08 L145.4,175.08 L149.144,148.008 C149.528002,144.359982 150.439993,141.720008 151.88,140.088 C153.320007,138.455992 155.863982,137.64 159.512,137.64 L189.752,137.64 C193.400018,137.64 196.135991,138.455992 197.96,140.088 C199.784009,141.720008 200.504002,144.359982 200.12,148.008 L196.376,175.08 L228.92,175.08 L232.664,148.008 C233.048002,144.359982 233.959993,141.720008 235.4,140.088 C236.840007,138.455992 239.383982,137.64 243.032,137.64 L273.272,137.64 C276.920018,137.64 279.655991,138.455992 281.48,140.088 C283.304009,141.720008 284.024002,144.359982 283.64,148.008 L279.896,175.08 L290.552,175.08 C294.200018,175.08 296.839992,175.895992 298.472,177.528 C300.104008,179.160008 300.92,181.799982 300.92,185.448 L300.92,216.264 C300.92,219.912018 300.104008,222.551992 298.472,224.184 C296.839992,225.816008 294.200018,226.632 290.552,226.632 L272.408,226.632 L268.376,254.568 L280.184,254.568 C283.832018,254.568 286.471992,255.383992 288.104,257.016 C289.736008,258.648008 290.552,261.287982 290.552,264.936 L290.552,295.752 C290.552,299.400018 289.736008,302.039992 288.104,303.672 C286.471992,305.304008 283.832018,306.12 280.184,306.12 L260.888,306.12 L256.856,334.632 C256.471998,338.280018 255.560007,340.919992 254.12,342.552 C252.679993,344.184008 250.136018,345 246.488,345 L216.248,345 C212.599982,345 209.864009,344.184008 208.04,342.552 C206.215991,340.919992 205.495998,338.280018 205.88,334.632 L209.912,306.12 L177.368,306.12 L173.336,334.632 Z" id="#" stroke="#9ECC33" stroke-width="6" fill="#FFFFFF"></path>
        </g>
    </g>
</svg>